<svg width="630" height="429" viewBox="0 0 630 429" fill="none" xmlns="http://www.w3.org/2000/svg">
<g clip-path="url(#clip0_128_1392)">
<path d="M382.897 240.513C383.972 240.513 385.002 240.94 385.762 241.7C386.522 242.461 386.949 243.492 386.949 244.567V283.793H464.672C465.746 283.793 466.777 284.22 467.537 284.98C468.297 285.741 468.723 286.772 468.723 287.847C468.723 288.923 468.297 289.954 467.537 290.715C466.777 291.475 465.746 291.902 464.672 291.902H386.949V427.553H378.845V244.567C378.845 243.492 379.272 242.461 380.032 241.7C380.792 240.94 381.822 240.513 382.897 240.513V240.513Z" fill="#E6E6E6"/>
<path d="M166.604 426.632L151.994 427.035C149.775 427.15 147.579 426.534 145.742 425.282C144.156 424.1 143.428 422.504 143.747 420.901L146.622 406.441C147.164 403.714 150.504 401.651 154.564 401.539L162.632 401.316C166.692 401.204 170.141 403.079 170.832 405.772L174.5 420.051C174.907 421.634 174.269 423.268 172.75 424.535C170.985 425.887 168.827 426.623 166.604 426.632V426.632Z" fill="#3F3D56"/>
<path d="M255.473 426.218L240.863 426.622C238.644 426.736 236.448 426.12 234.611 424.868C233.025 423.687 232.297 422.091 232.616 420.487L235.491 406.028C236.033 403.3 239.373 401.238 243.433 401.126L251.502 400.903C255.561 400.791 259.01 402.665 259.702 405.359L263.37 419.637C263.777 421.221 263.138 422.855 261.619 424.122C259.854 425.473 257.696 426.21 255.473 426.218V426.218Z" fill="#3F3D56"/>
<path d="M115.871 303.466C115.203 303.178 114.654 302.671 114.314 302.028C113.973 301.385 113.863 300.646 114 299.931C114.137 299.217 114.513 298.571 115.067 298.1C115.621 297.629 116.319 297.361 117.046 297.341L283.149 292.751C283.568 292.74 283.985 292.811 284.376 292.96C284.768 293.11 285.126 293.335 285.43 293.623C285.734 293.911 285.979 294.257 286.15 294.639C286.321 295.022 286.415 295.435 286.427 295.854V295.854C286.449 296.7 286.135 297.521 285.554 298.135C284.972 298.75 284.171 299.109 283.326 299.134L283.325 299.133L117.222 303.723C116.758 303.737 116.297 303.649 115.871 303.466Z" fill="#3F3D56"/>
<path d="M177.172 248.438L129.691 249.75L134.118 410.17L181.598 408.858L177.172 248.438Z" fill="#E6E6E6"/>
<path d="M178.376 245.556L169.249 270.437L169.257 383.793L180.378 386.985L178.376 245.556Z" fill="#CCCCCC"/>
<path d="M153.184 206.515C144.301 206.767 137.524 222.151 137.687 228.154L137.987 239.022L170.151 238.133L169.851 227.265C169.683 221.262 162.067 206.276 153.184 206.515Z" fill="#3F3D56"/>
<path d="M130.307 316.184C128.648 316.228 127.038 315.612 125.832 314.47C124.627 313.328 123.922 311.754 123.875 310.093L123.387 292.406C123.341 290.745 123.956 289.134 125.098 287.926C126.239 286.719 127.813 286.015 129.473 285.969C131.134 285.924 132.744 286.54 133.95 287.682C135.157 288.824 135.86 290.399 135.906 292.061L136.394 309.747C136.438 311.408 135.822 313.019 134.681 314.225C133.54 315.432 131.967 316.137 130.307 316.184Z" fill="#3F3D56"/>
<path d="M142.356 250.131L142.131 238.442L145.195 238.366L145.419 250.017L148.196 419.836L145.132 419.921" fill="#3F3D56"/>
<path d="M182.616 277.465L127.555 278.987C122.296 272.569 121.819 245.227 132.794 240.023L137.098 232.71L170.281 231.089L174.159 238.789C179.619 243.438 182.434 270.609 182.616 277.465Z" fill="#E6E6E6"/>
<path d="M161.892 264.352L147.968 264.736C145.281 264.811 142.997 261.322 142.877 256.961C142.756 252.6 144.845 248.991 147.532 248.917L161.455 248.532C164.142 248.458 166.427 251.946 166.547 256.307C166.667 260.668 164.579 264.277 161.892 264.352Z" fill="#FF9F1C"/>
<path d="M134.929 343.231L106.227 363.52L101.213 409.265L134.695 398.07L134.929 343.231Z" fill="#E6E6E6"/>
<path d="M268.825 246.474L221.345 247.786L225.772 408.206L273.252 406.894L268.825 246.474Z" fill="#E6E6E6"/>
<path d="M222.482 246.092L232.252 270.728L235.183 384.046L224.148 387.525L222.482 246.092Z" fill="#CCCCCC"/>
<path d="M292.57 201.936C296.007 201.936 298.793 198.197 298.793 193.585C298.793 188.973 296.007 185.234 292.57 185.234C289.133 185.234 286.347 188.973 286.347 193.585C286.347 198.197 289.133 201.936 292.57 201.936Z" fill="#E6E6E6"/>
<path d="M243.911 204.576C235.028 204.828 228.251 220.212 228.414 226.215L228.714 237.083L260.878 236.194L260.578 225.326C260.41 219.323 252.794 204.337 243.911 204.576Z" fill="#3F3D56"/>
<path d="M253.108 253.79L252.884 242.101L255.947 242.024L256.172 253.676L258.948 423.494L255.884 423.579" fill="#3F3D56"/>
<path d="M273.343 275.526L218.283 277.047C217.323 271.24 218.565 244.143 223.521 238.084L227.825 230.77L261.009 229.149L264.887 236.85C274.684 237.649 278.111 264.277 273.343 275.526Z" fill="#E6E6E6"/>
<path d="M252.687 264.853L238.763 265.238C236.076 265.312 233.776 261.276 233.637 256.243C233.499 251.209 235.572 247.052 238.259 246.978L252.183 246.593C254.87 246.519 257.169 250.555 257.308 255.588C257.447 260.622 255.373 264.779 252.687 264.853Z" fill="#FF9F1C"/>
<path d="M271.172 331.505L298.918 353.082L301.84 399.009L268.905 386.297L271.172 331.505Z" fill="#E6E6E6"/>
<path d="M263.423 118.783C233.651 118.783 199.435 85.7212 169.162 101.43C77.5048 148.991 90.122 69.4046 63.7896 39.8055L64.654 38.0703C84.589 114.166 102.626 235.422 169.56 99.4115C186.327 65.3412 241.356 118.004 273.748 116.451L273.804 118.537C270.383 118.702 266.923 118.784 263.423 118.783Z" fill="#F2F2F2"/>
<path d="M334.881 123.462C311.148 141.45 263.925 135.767 249.27 166.58C204.9 259.873 166.94 188.807 128.091 181.121L127.733 179.216C166.624 182.444 208.339 177.435 248.37 164.731C284.545 153.251 316.82 136.174 341.704 115.365L343.008 116.993C340.38 119.192 337.671 121.348 334.881 123.462Z" fill="#F2F2F2"/>
<path d="M76.7149 119.366C80.1519 119.366 82.9382 115.627 82.9382 111.015C82.9382 106.403 80.1519 102.664 76.7149 102.664C73.2779 102.664 70.4917 106.403 70.4917 111.015C70.4917 115.627 73.2779 119.366 76.7149 119.366Z" fill="#E6E6E6"/>
<path d="M269.732 51.5406C273.169 51.5406 275.955 47.8017 275.955 43.1896C275.955 38.5775 273.169 34.8386 269.732 34.8386C266.295 34.8386 263.509 38.5775 263.509 43.1896C263.509 47.8017 266.295 51.5406 269.732 51.5406Z" fill="#E6E6E6"/>
<path d="M133.691 153.071C130.845 154.968 127.933 150.453 130.833 148.64C133.678 146.743 136.59 151.258 133.691 153.071Z" fill="#E6E6E6"/>
<path d="M239.04 4.88724C236.195 6.78428 233.283 2.26916 236.182 0.45635C239.027 -1.44058 241.939 3.07454 239.04 4.88724Z" fill="#E6E6E6"/>
<path d="M301.128 92.7444L299.318 92.347L299.714 90.5349L298.508 90.2703L298.111 92.0824L296.301 91.6857L296.036 92.8933L297.846 93.2907L297.45 95.1021L298.657 95.3667L299.054 93.5546L300.864 93.952L301.128 92.7444Z" fill="#E6E6E6"/>
<path d="M135.212 32.0251C139.566 32.0251 143.096 28.4925 143.096 24.135C143.096 19.7774 139.566 16.2449 135.212 16.2449C130.857 16.2449 127.327 19.7774 127.327 24.135C127.327 28.4925 130.857 32.0251 135.212 32.0251Z" fill="#FF6584"/>
<path d="M192.881 14.1478C183.999 14.4003 177.221 29.7839 177.384 35.787L177.684 46.6549L209.848 45.7662L209.548 34.8982C209.38 28.8952 201.765 13.9094 192.881 14.1478Z" fill="#3F3D56"/>
<path d="M212.034 425.684L197.423 426.088C195.204 426.202 193.008 425.586 191.172 424.334C189.585 423.153 188.857 421.557 189.176 419.953L192.051 405.494C192.593 402.766 195.933 400.704 199.993 400.592L208.062 400.369C212.121 400.257 215.57 402.131 216.262 404.825L219.93 419.103C220.337 420.687 219.698 422.321 218.179 423.588C216.414 424.939 214.256 425.676 212.034 425.684V425.684Z" fill="#3F3D56"/>
<path d="M218.549 83.3337L171.069 84.6458L180.017 408.916L227.497 407.604L218.549 83.3337Z" fill="#E6E6E6"/>
<path d="M199.55 240.3L199.326 228.611L202.389 228.535L202.614 240.186L205.39 410.005L202.326 410.089" fill="#3F3D56"/>
<path d="M227.897 113.011L163.563 114.789C162.441 108.004 163.892 76.3424 169.684 69.2634L171.271 60.8132L215.692 59.5857L218.016 67.8213C224.395 73.2533 227.684 105.001 227.897 113.011Z" fill="#E6E6E6"/>
<path d="M217.096 60.5828L171.256 61.8495C169.564 61.8962 168.167 61.0072 168.136 59.8638C168.132 59.6991 168.156 59.5349 168.207 59.3784L175.327 37.4272C175.632 36.4872 176.846 35.7969 178.262 35.7578L208.662 34.9178C210.079 34.8786 211.329 35.5009 211.685 36.4226L220.005 57.9471C220.43 59.048 219.448 60.1936 217.81 60.5059C217.574 60.5506 217.336 60.5763 217.096 60.5828V60.5828Z" fill="#E6E6E6"/>
<path d="M175.778 238.809C175.364 238.632 174.973 238.405 174.614 238.134C174.098 237.772 173.672 237.297 173.368 236.745C173.064 236.192 172.891 235.578 172.861 234.948L171.195 174.586C171.127 172.087 173.571 169.985 176.645 169.9L217.682 168.766C220.756 168.68 223.313 170.645 223.382 173.143L225.048 233.507C225.053 234.137 224.913 234.76 224.64 235.328C224.367 235.896 223.968 236.394 223.473 236.784C222.377 237.678 221.011 238.174 219.597 238.192L178.561 239.326C177.607 239.358 176.657 239.181 175.778 238.809V238.809Z" fill="#3F3D56"/>
<path d="M202.044 56.6982L188.12 57.083C185.433 57.1572 183.161 54.1194 183.056 50.3121C182.951 46.5048 185.052 43.3461 187.739 43.2718L201.663 42.8871C204.35 42.8128 206.622 45.8507 206.727 49.658C206.832 53.4653 204.731 56.6239 202.044 56.6982Z" fill="#FF9F1C"/>
<path d="M531.172 414.714H514.964V296.847C528.521 295.874 538.71 291.72 538.71 286.742C538.71 281.041 525.352 276.42 508.874 276.42C492.395 276.42 479.037 281.041 479.037 286.742C479.037 291.768 489.425 295.953 503.177 296.873V414.714H486.969C485.406 414.714 483.907 415.335 482.802 416.441C481.697 417.547 481.076 419.047 481.076 420.611C481.076 422.176 481.697 423.676 482.802 424.782C483.907 425.888 485.406 426.509 486.969 426.509H531.172C532.735 426.509 534.234 425.888 535.339 424.782C536.445 423.676 537.066 422.176 537.066 420.611C537.066 419.047 536.445 417.547 535.339 416.441C534.234 415.335 532.735 414.714 531.172 414.714Z" fill="#E6E6E6"/>
<path d="M498.638 354.876L493.314 360.682L468.403 342.895L476.26 334.326L498.638 354.876Z" fill="#A0616A"/>
<path d="M485.025 370.199C485.077 371.498 485.386 372.773 485.935 373.951C486.483 375.128 487.259 376.186 488.219 377.061L488.453 377.279L495.435 369.665L505.617 358.559L498.101 351.654L496.744 353.138L496.602 353.29L489.838 356.492L488.404 357.174L488.159 357.289L487.619 363.087V363.092C486.737 364.045 486.054 365.165 485.608 366.385C485.163 367.605 484.964 368.902 485.025 370.199V370.199Z" fill="#242F40"/>
<path d="M526.22 412.794L518.686 415.084L506.272 387.093L517.392 383.713L526.22 412.794Z" fill="#A0616A"/>
<path d="M505.972 426.594L506.064 426.904L530.358 419.519L527.393 409.75L525.474 410.334L525.272 410.394L516.241 409.565L515.974 409.543L512.556 414.261C510.049 415.023 507.947 416.75 506.712 419.063C505.477 421.376 505.211 424.084 505.972 426.594H505.972Z" fill="#242F40"/>
<path d="M464.094 266.235C464.094 266.235 415.991 312.711 446.401 327.097H455.8C457.843 320.452 460.983 314.195 465.091 308.587C465.979 307.424 469.305 307.661 470.229 306.527C475.87 299.607 481.986 293.664 486.209 293.9L485.199 326.012L483.564 337.467C482.705 343.388 506.937 395.09 506.937 395.09L522.168 389.1C522.168 389.1 506.3 346.516 506.114 340.376L518.83 272.874L464.094 266.235Z" fill="#242F40"/>
<path d="M460.082 268.527C460.328 268.877 460.648 269.168 461.02 269.378C461.633 269.725 462.297 269.971 462.988 270.109C473.818 272.569 509.198 277.669 518.382 275.236C519.511 274.942 520.246 274.527 520.486 273.982C521.255 272.258 521.157 264.976 520.704 256.184C520.623 254.536 518.808 252.753 518.699 251.029C518.622 249.736 520.252 248.52 520.165 247.205C519.565 238.314 518.791 229.255 518.273 223.527C517.946 219.846 517.723 217.544 517.723 217.544L523.31 182.291L523.048 181.86L522.754 181.713L504.739 172.789L503.758 170.28C503.474 169.558 502.98 168.937 502.34 168.499C501.699 168.06 500.942 167.824 500.166 167.82L488.3 167.771C487.685 167.768 487.077 167.912 486.528 168.191C485.979 168.469 485.505 168.876 485.144 169.375L481.929 173.831L460.671 187.468L460.753 187.718L470.727 218.095L470.777 220.462V220.467L471.147 239.504L470.117 242.084L471.278 246.316C471.278 246.316 470.744 251.263 467.882 254.94C465.288 258.278 461.985 261.758 460.491 264.583V264.589C459.663 266.149 459.385 267.502 460.082 268.527Z" fill="#FF9F1C"/>
<path d="M444.091 324.337L446.662 327.588C446.662 327.588 470.309 344.143 471.121 345.69L474.858 349.229L483.901 339.556L479.198 333.658C475.435 328.938 470.573 325.213 465.038 322.809V322.809L457.831 316.411L444.091 324.337Z" fill="#242F40"/>
<path d="M529.269 279.507L524.963 237.797L523.826 220.63L535.879 218.449C535.879 218.449 535.401 230.724 536.98 237.649C538.539 244.483 537.187 278.592 537.091 279.504C537.976 280.296 538.6 281.338 538.88 282.493C539.161 283.647 539.084 284.86 538.661 285.97C538.237 287.08 537.487 288.036 536.509 288.71C535.531 289.384 534.372 289.746 533.185 289.746C531.997 289.747 530.838 289.387 529.859 288.713C528.881 288.04 528.13 287.085 527.705 285.975C527.281 284.866 527.203 283.653 527.482 282.498C527.762 281.343 528.385 280.3 529.269 279.507V279.507Z" fill="#A0616A"/>
<path d="M514.916 216.338L518.274 223.527L519.446 226.031L522.601 242.569L524.177 244.244L525.534 249.649L526.172 249.518L537.672 247.135L541.025 246.442C541.78 245.182 542.078 243.7 541.867 242.246C541.657 240.792 540.951 239.455 539.869 238.462C539.64 238.255 539.449 238.053 539.455 237.862C539.646 226.358 538.942 205.353 532.592 196.708C530.576 193.964 529.366 191.231 527.605 189.322C527.6 189.317 527.6 189.311 527.594 189.311L523.31 182.291L523.048 181.86L522.754 181.713L514.916 216.338Z" fill="#FF9F1C"/>
<path d="M495.162 164.817C503.881 164.817 510.95 157.743 510.95 149.017C510.95 140.292 503.881 133.218 495.162 133.218C486.442 133.218 479.374 140.292 479.374 149.017C479.374 157.743 486.442 164.817 495.162 164.817Z" fill="#A0616A"/>
<path d="M513.909 145.618C514.371 142.963 514.732 139.521 513.407 136.461C512.288 133.886 509.488 131.472 506.375 131.798C506.523 131.216 506.506 130.605 506.328 130.033C506.149 129.46 505.816 128.949 505.364 128.555C504.35 127.758 503.169 127.203 501.91 126.93C498.985 126.069 495.954 125.177 492.825 125.16C489.314 125.141 486.202 126.345 484.294 128.468L484.247 128.536L483.675 129.903C483.599 130.086 483.484 130.251 483.338 130.385C483.192 130.52 483.018 130.621 482.829 130.682C482.64 130.745 482.439 130.765 482.241 130.741C482.043 130.716 481.853 130.649 481.685 130.542C481.5 130.428 481.288 130.365 481.071 130.358C480.854 130.351 480.639 130.4 480.447 130.502C480.255 130.604 480.092 130.754 479.976 130.937C479.86 131.121 479.793 131.332 479.783 131.549L479.753 132.132L478.934 131.805C478.728 131.722 478.504 131.696 478.285 131.728C478.066 131.761 477.859 131.851 477.687 131.99C477.514 132.129 477.382 132.312 477.303 132.519C477.225 132.727 477.203 132.951 477.24 133.17L477.349 133.863C477.173 133.831 476.992 133.835 476.818 133.875C476.643 133.914 476.478 133.988 476.333 134.093C476.125 134.246 475.97 134.461 475.892 134.708C475.814 134.954 475.817 135.219 475.899 135.464C476.534 137.279 477.62 138.902 479.055 140.182C479.698 140.764 480.419 141.255 481.197 141.64C481.359 141.721 481.527 141.799 481.702 141.872C487.994 144.571 494.726 146.097 501.566 146.375C500.919 147.609 500.501 148.951 500.332 150.335C500.239 151.12 500.362 151.916 500.689 152.636C501.015 153.356 501.532 153.973 502.184 154.42C502.467 154.582 502.764 154.718 503.071 154.827C503.365 154.935 503.649 155.067 503.922 155.221C504.321 155.463 504.65 155.806 504.874 156.215C505.099 156.625 505.211 157.087 505.2 157.554C505.189 158.021 505.055 158.477 504.811 158.875C504.568 159.274 504.223 159.601 503.813 159.823C503.813 159.823 504.988 161.259 505.176 161.235C505.924 161.065 506.6 160.664 507.11 160.09C510.529 156.767 512.816 151.901 513.909 145.618Z" fill="#242F40"/>
<path d="M583.028 389.843L583.714 374.403C590.868 370.576 598.846 368.555 606.957 368.515C595.794 377.648 597.189 395.254 589.621 407.536C587.231 411.348 584.015 414.574 580.21 416.973C576.405 419.373 572.109 420.884 567.641 421.397L558.299 427.12C557.017 419.969 557.3 412.625 559.128 405.594C560.955 398.562 564.284 392.011 568.886 386.391C571.498 383.264 574.494 380.479 577.802 378.101C580.039 384.004 583.028 389.843 583.028 389.843Z" fill="#F2F2F2"/>
<path d="M630 427.855C630.001 428.006 629.971 428.155 629.914 428.294C629.856 428.433 629.772 428.559 629.666 428.666C629.56 428.772 629.433 428.856 629.294 428.914C629.155 428.971 629.006 429.001 628.856 429H1.14427C0.840791 429 0.549739 428.879 0.335147 428.665C0.120555 428.45 0 428.159 0 427.855C0 427.551 0.120555 427.26 0.335147 427.045C0.549739 426.831 0.840791 426.71 1.14427 426.71H628.856C629.006 426.71 629.155 426.739 629.294 426.796C629.433 426.854 629.56 426.938 629.666 427.044C629.772 427.151 629.856 427.277 629.914 427.416C629.971 427.555 630.001 427.705 630 427.855V427.855Z" fill="#CCCCCC"/>
<path d="M270.002 312.266C268.342 312.31 266.733 311.694 265.527 310.552C264.321 309.41 263.617 307.836 263.569 306.175L263.081 288.488C263.038 286.828 263.654 285.219 264.795 284.013C265.937 282.808 267.51 282.105 269.168 282.059C270.827 282.013 272.436 282.628 273.642 283.769C274.848 284.91 275.553 286.483 275.601 288.142L276.089 305.829C276.132 307.49 275.516 309.1 274.375 310.307C273.234 311.514 271.661 312.218 270.002 312.266V312.266Z" fill="#3F3D56"/>
<path d="M546.161 376.908C536.648 376.908 526.222 376.548 514.883 375.829C456.231 372.102 380.259 359.143 300.961 339.342C221.663 319.54 148.514 295.26 94.9882 270.975C68.9142 259.145 48.9026 247.947 35.5099 237.691C21.3304 226.834 15.1281 217.37 17.0746 209.563C20.8671 194.355 54.4484 191.028 81.9519 190.915L81.9613 193.126C44.1917 193.282 21.9096 199.309 19.2193 210.099C15.7922 223.841 43.7417 245.295 95.9008 268.961C149.309 293.192 222.324 317.426 301.496 337.196C380.668 356.966 456.5 369.902 515.023 373.621C572.176 377.254 606.922 371.456 610.349 357.713C613.194 346.304 594.437 329.496 557.535 310.384L558.551 308.42C585.365 322.307 616.489 342.224 612.494 358.249C610.547 366.055 600.629 371.493 583.014 374.411C572.973 376.074 560.64 376.908 546.161 376.908Z" fill="#CCCCCC"/>
<path d="M41.2987 362.419C33.7503 362.419 28.843 360.542 26.671 356.811C22.3878 349.453 29.5614 336.542 47.992 318.437L49.5403 320.016C32.4201 336.834 24.9764 349.506 28.5804 355.698C30.8611 359.614 37.6483 361.018 48.2125 359.756C58.6998 358.503 72.598 354.768 89.521 348.657C124.361 336.074 168.071 314.85 212.599 288.893C257.126 262.938 297.136 235.359 325.261 211.237C330.663 206.603 335.566 202.145 339.833 197.988C345.434 192.664 350.601 186.901 355.286 180.754C361.594 172.182 363.723 165.581 361.443 161.663C357.634 155.121 341.635 155.736 316.389 163.398L315.748 161.281C342.834 153.062 358.85 152.816 363.353 160.55C366.15 165.356 364.035 172.595 357.066 182.065C352.31 188.31 347.062 194.165 341.374 199.573C337.074 203.763 332.137 208.252 326.699 212.916C298.476 237.122 258.35 264.784 213.711 290.804C169.071 316.826 125.233 338.111 90.2714 350.737C73.1908 356.906 59.1283 360.679 48.4744 361.951C46.0938 362.249 43.6977 362.405 41.2987 362.419V362.419Z" fill="#CCCCCC"/>
<path d="M444.678 271.613C439.216 271.504 409.876 270.661 405.065 270.869C404.793 269.915 395.672 281.612 395.45 281.684C395.302 281.841 395.194 282.03 395.136 282.237C395.077 282.444 395.069 282.662 395.113 282.873C395.157 283.083 395.251 283.28 395.387 283.446C395.523 283.613 395.698 283.744 395.896 283.828C396.432 284.154 443.731 283.278 444.304 283.392C444.552 283.389 444.794 283.315 445.002 283.179C445.209 283.044 445.375 282.852 445.478 282.627L445.795 281.918C445.827 280.706 446.224 274.511 445.868 273.451C445.955 273.253 445.992 273.035 445.975 272.819C445.957 272.602 445.886 272.393 445.768 272.211C445.65 272.029 445.489 271.879 445.299 271.774C445.108 271.67 444.895 271.614 444.678 271.613V271.613Z" fill="#E6E6E6"/>
<path opacity="0.17" d="M445.794 281.917C445.517 282.585 445.161 283.424 444.304 283.393L396.395 283.931C396.168 283.928 395.946 283.867 395.75 283.754C395.553 283.641 395.389 283.479 395.273 283.284C395.158 283.089 395.094 282.868 395.088 282.641C395.083 282.414 395.135 282.19 395.241 281.99L445.794 281.917Z" fill="black"/>
<path d="M405.289 270.725C404.773 269.832 391.964 206.41 390.895 205.88L382.15 195.174L381.369 194.586C380.282 193.989 377.675 194.393 377.909 196.054C379.964 205.911 393.178 262.05 393.468 270.802L395.058 281.952C395.087 282.142 395.154 282.324 395.257 282.485C395.36 282.647 395.496 282.786 395.655 282.892C395.815 282.998 395.995 283.07 396.184 283.102C396.373 283.135 396.567 283.127 396.752 283.08C397.208 283.031 397.644 282.864 398.015 282.595C398.387 282.326 398.682 281.965 398.872 281.547C398.992 281.154 405.887 270.953 405.289 270.725Z" fill="#E6E6E6"/>
<path opacity="0.17" d="M382.148 195.175L398.874 281.549C398.314 282.966 395.697 283.959 395.088 282.1C395.077 282.098 377.929 196.107 377.911 196.056C377.729 193.986 381.146 193.92 382.148 195.175Z" fill="black"/>
<path d="M382.652 198.707L391.147 210.556L400.681 255.869L396.249 259.738L382.652 198.707Z" fill="#FF9F1C"/>
<path d="M439.194 277.723L441.544 277.818C441.581 277.13 441.695 276.447 441.883 275.784C442.237 274.103 442.554 272.105 441.088 272.112C440.093 272.016 439.754 273.277 439.577 274.648C439.532 275.682 439.404 276.71 439.194 277.723Z" fill="#242F40"/>
<path d="M425.713 274.56L427.297 274.619L428.063 274.648C428.048 273.808 428.439 272.076 427.488 271.648C427.337 271.583 427.174 271.55 427.01 271.552C426.118 271.5 425.853 272.179 425.772 272.96C425.72 273.432 425.742 273.933 425.728 274.324C425.728 274.405 425.72 274.486 425.713 274.56Z" fill="#242F40"/>
<path d="M421.02 274.368L422.611 274.435L423.37 274.464C423.355 273.498 423.864 271.39 422.317 271.36C420.887 271.279 421.072 273.1 421.035 274.132C421.035 274.213 421.027 274.294 421.02 274.368Z" fill="#242F40"/>
<path d="M416.327 274.184L417.911 274.243L418.677 274.272C418.663 273.314 419.171 271.205 417.624 271.176C416.195 271.087 416.379 272.908 416.342 273.948C416.342 274.029 416.334 274.11 416.327 274.184Z" fill="#242F40"/>
<path d="M411.634 273.992L413.226 274.059L413.984 274.088C413.97 273.122 414.478 271.021 412.931 270.984C411.502 270.903 411.686 272.724 411.649 273.756C411.649 273.837 411.642 273.919 411.634 273.992Z" fill="#242F40"/>
<path d="M406.941 273.808L408.525 273.867L409.291 273.896C409.277 273.012 409.704 271.161 408.57 270.844H408.562C408.457 270.813 408.348 270.798 408.238 270.8C408.104 270.788 407.969 270.801 407.84 270.837H407.833C406.846 271.095 406.986 272.643 406.956 273.572C406.956 273.653 406.949 273.734 406.941 273.808Z" fill="#242F40"/>
<path d="M434.458 273.307L436.808 273.402C436.808 273.314 436.808 273.218 436.815 273.108C436.873 272.547 436.883 271.982 436.844 271.419C436.763 270.8 436.498 270.313 435.754 270.299C434.995 270.254 434.693 270.741 434.575 271.368C434.548 271.474 434.528 271.583 434.516 271.692V271.699C434.457 272.274 434.494 272.894 434.458 273.307Z" fill="#242F40"/>
<path d="M429.765 273.115L432.115 273.211C432.165 272.578 432.179 271.943 432.159 271.309C432.093 270.66 431.835 270.129 431.061 270.115C430.28 270.063 429.978 270.594 429.86 271.25C429.75 271.884 429.809 272.643 429.765 273.115Z" fill="#242F40"/>
<path d="M425.072 272.931L425.772 272.96L427.422 273.027C427.415 272.673 427.481 272.157 427.488 271.648C427.494 271.495 427.489 271.343 427.473 271.191C427.414 270.505 427.171 269.938 426.368 269.923C425.551 269.879 425.263 270.446 425.16 271.139C425.057 271.759 425.116 272.474 425.072 272.931Z" fill="#242F40"/>
<path d="M434.501 277.538L436.852 277.627C436.844 276.668 437.345 274.56 435.798 274.53C434.251 274.435 434.59 276.573 434.501 277.538Z" fill="#242F40"/>
<path d="M429.809 277.347L432.159 277.443C432.151 276.477 432.652 274.368 431.105 274.339C429.558 274.25 429.897 276.388 429.809 277.347Z" fill="#242F40"/>
<path d="M425.116 277.162L427.466 277.251C427.459 276.565 427.717 275.297 427.297 274.619C427.205 274.469 427.075 274.346 426.919 274.264C426.763 274.183 426.588 274.145 426.413 274.154C426.172 274.129 425.929 274.189 425.728 274.324C424.976 274.818 425.19 276.381 425.116 277.162Z" fill="#242F40"/>
<path d="M420.423 276.971L422.773 277.066C422.766 276.381 423.016 275.12 422.611 274.434C422.52 274.282 422.388 274.157 422.231 274.074C422.074 273.991 421.897 273.953 421.72 273.963C421.479 273.936 421.236 273.996 421.035 274.132C420.283 274.641 420.497 276.196 420.423 276.971Z" fill="#242F40"/>
<path d="M415.73 276.786L418.081 276.875C418.073 276.189 418.331 274.921 417.911 274.243C417.819 274.093 417.689 273.97 417.533 273.888C417.378 273.807 417.203 273.769 417.027 273.778C416.786 273.753 416.543 273.813 416.342 273.948C415.591 274.442 415.804 276.005 415.73 276.786Z" fill="#242F40"/>
<path d="M411.038 276.595L413.388 276.69C413.38 276.005 413.631 274.744 413.226 274.059C413.135 273.905 413.004 273.78 412.846 273.697C412.689 273.614 412.512 273.576 412.334 273.587C412.093 273.56 411.85 273.62 411.649 273.756C410.898 274.265 411.111 275.82 411.038 276.595Z" fill="#242F40"/>
<path d="M406.345 276.41L408.695 276.499C408.687 275.813 408.938 274.553 408.525 273.867C408.434 273.716 408.304 273.593 408.148 273.511C407.992 273.429 407.817 273.392 407.641 273.402C407.4 273.377 407.158 273.437 406.956 273.572C406.205 274.073 406.418 275.629 406.345 276.41Z" fill="#242F40"/>
<path d="M432.885 269.595L450.797 231.687L457.569 215.873L446.925 209.808C446.925 209.808 443.3 221.544 439.511 227.551C435.772 233.479 425.721 266.099 425.509 266.991C424.411 267.444 423.477 268.219 422.829 269.215C422.181 270.211 421.851 271.38 421.881 272.568C421.912 273.756 422.302 274.907 423.001 275.868C423.699 276.829 424.672 277.555 425.792 277.95C426.912 278.346 428.125 278.392 429.272 278.082C430.418 277.772 431.444 277.122 432.212 276.216C432.981 275.31 433.457 274.193 433.577 273.01C433.697 271.828 433.456 270.637 432.885 269.595H432.885Z" fill="#A0616A"/>
<path d="M432.776 234.498L446.323 242.676L449.395 238.029L451.441 236.973L459.909 222.422L467.396 214.789L477.288 183.147L464.417 185.08L464.4 185.085C462.108 186.302 460.057 188.478 457.245 190.395C448.385 196.437 440.746 216.016 437.107 226.932C437.047 227.111 436.802 227.236 436.517 227.358C435.167 227.935 434.058 228.961 433.377 230.261C432.695 231.562 432.483 233.058 432.776 234.498L432.776 234.498Z" fill="#FF9F1C"/>
</g>
<defs>
<clipPath id="clip0_128_1392">
<rect width="630" height="429" fill="white"/>
</clipPath>
</defs>
</svg>
