<svg width="160" height="160" viewBox="0 0 160 160" fill="none" xmlns="http://www.w3.org/2000/svg">
<path fill-rule="evenodd" clip-rule="evenodd" d="M145 82.5C144.997 45.28 114.718 15 77.5 15C40.28 15 10 45.2825 10 82.505C10 84.17 10.0825 85.815 10.2 87.45C10.2 87.4675 10.19 87.4825 10.19 87.5C10.19 87.54 10.21 87.5725 10.2125 87.6125C12.835 122.45 42 150 77.5 150C114.72 150 145 119.722 145 82.505V82.5ZM77.5 20C111.1 20 138.58 46.655 139.935 79.9325C126.895 79.255 115.922 73.4925 103.34 66.8825C85.555 57.5375 63.5625 46.035 27.4625 45.0925C38.8725 29.87 57.055 20 77.5 20ZM15.48 90.115C31.5075 91.26 44.5875 102.095 58.3875 113.545C71.9425 124.792 85.905 136.355 103.577 139.28C95.6325 142.94 86.805 145 77.5 145C45.615 145 19.2475 120.995 15.48 90.115ZM111.395 134.97C91.69 134.652 76.3825 121.98 61.5775 109.698C47.56 98.065 33.0725 86.085 15.065 85.0975C15.03 84.2375 15 83.375 15 82.505C15 70.6175 18.3375 59.4975 24.12 50.025C60.9725 50.305 82.245 61.445 101.015 71.3075C114.215 78.2425 125.72 84.2775 139.937 84.935C139.132 105.897 127.952 124.237 111.395 134.97Z" fill="#EDF2F4"/>
</svg>
