<svg width="160" height="160" viewBox="0 0 160 160" fill="none" xmlns="http://www.w3.org/2000/svg">
<path fill-rule="evenodd" clip-rule="evenodd" d="M80 50C63.4575 50 50 63.4575 50 80C50 96.5425 63.4575 110 80 110C96.5425 110 110 96.5425 110 80C110 63.4575 96.5425 50 80 50ZM80 105C66.215 105 55 93.785 55 80C55 66.215 66.215 55 80 55C93.785 55 105 66.215 105 80C105 93.785 93.785 105 80 105Z" fill="#EDF2F4"/>
<path fill-rule="evenodd" clip-rule="evenodd" d="M80 60C68.9725 60 60 68.9725 60 80C60 81.3825 61.1175 82.5 62.5 82.5C63.8825 82.5 65 81.3825 65 80C65 71.7275 71.7275 65 80 65C81.3825 65 82.5 63.8825 82.5 62.5C82.5 61.1175 81.3825 60 80 60Z" fill="#EDF2F4"/>
<path fill-rule="evenodd" clip-rule="evenodd" d="M22.5 130C24.95 130 27.2225 129.265 29.1525 128.042C29.8125 128.74 30.4575 129.462 31.135 130.122C31.62 130.595 32.2475 130.83 32.8775 130.83C33.53 130.83 34.18 130.575 34.67 130.072C35.6325 129.082 35.6125 127.502 34.62 126.537C33.9875 125.922 33.385 125.247 32.7675 124.595C34.1675 122.577 34.9975 120.135 34.9975 117.5C34.9975 110.607 29.39 105 22.4975 105C21.685 105 20.895 105.09 20.125 105.24C19.775 104.412 19.4025 103.59 19.0925 102.76C18.61 101.467 17.1675 100.815 15.875 101.295C14.58 101.777 13.9275 103.22 14.41 104.512C14.74 105.392 15.1375 106.265 15.5075 107.145C12.1875 109.395 10 113.197 10 117.5C10 124.392 15.6075 130 22.5 130ZM22.5 110C26.635 110 30 113.365 30 117.5C30 121.635 26.635 125 22.5 125C18.365 125 15 121.635 15 117.5C15 113.365 18.365 110 22.5 110Z" fill="#EDF2F4"/>
<path fill-rule="evenodd" clip-rule="evenodd" d="M135.013 121.617C135.793 121.617 136.563 121.252 137.05 120.567C139.075 117.725 140.898 114.71 142.473 111.605C143.098 110.375 142.608 108.87 141.375 108.245C140.148 107.612 138.638 108.11 138.015 109.342C136.553 112.222 134.858 115.025 132.978 117.665C132.178 118.79 132.438 120.35 133.563 121.152C134.005 121.467 134.513 121.617 135.013 121.617Z" fill="#EDF2F4"/>
<path fill-rule="evenodd" clip-rule="evenodd" d="M15.27 53.3025C13.94 56.5325 12.84 59.885 12.0125 63.265C11.6825 64.605 12.5025 65.96 13.8425 66.29C14.0425 66.34 14.2425 66.36 14.44 66.36C15.5625 66.36 16.585 65.595 16.865 64.455C17.6375 61.3175 18.655 58.205 19.8925 55.21C20.4175 53.9325 19.81 52.47 18.535 51.9425C17.265 51.4325 15.7975 52.025 15.27 53.3025Z" fill="#EDF2F4"/>
<path fill-rule="evenodd" clip-rule="evenodd" d="M68.1424 148.997C71.5574 149.582 75.0674 149.915 78.5724 149.987H78.6224C79.9799 149.987 81.0949 148.9 81.1224 147.537C81.1499 146.157 80.0524 145.017 78.6724 144.987C75.4174 144.925 72.1599 144.615 68.9899 144.072C67.6149 143.847 66.3349 144.752 66.1049 146.112C65.8674 147.47 66.7824 148.765 68.1424 148.997Z" fill="#EDF2F4"/>
<path fill-rule="evenodd" clip-rule="evenodd" d="M13.085 91.4475C13.195 91.4475 13.305 91.44 13.4175 91.425C14.785 91.245 15.7475 89.9875 15.565 88.6175C15.19 85.7825 14.9975 82.8825 14.9975 80L15.0075 78.9125C15.035 77.5301 13.935 76.39 12.5575 76.3625H12.5075C11.1475 76.3625 10.035 77.4525 10.0075 78.8125L10 80C10 83.1025 10.205 86.2225 10.61 89.2775C10.7775 90.535 11.85 91.4475 13.085 91.4475Z" fill="#EDF2F4"/>
<path fill-rule="evenodd" clip-rule="evenodd" d="M147.44 83.845C146.085 83.7225 144.848 84.7301 144.718 86.1026C144.418 89.3251 143.873 92.5501 143.098 95.6876C142.765 97.0276 143.583 98.3826 144.923 98.7151C145.125 98.7651 145.325 98.7875 145.525 98.7875C146.648 98.7875 147.668 98.0251 147.95 96.8876C148.785 93.5076 149.373 90.0375 149.698 86.565C149.825 85.1925 148.813 83.975 147.44 83.845Z" fill="#EDF2F4"/>
<path fill-rule="evenodd" clip-rule="evenodd" d="M146.928 73.7125C147.035 73.7125 147.143 73.705 147.253 73.69C148.623 73.515 149.588 72.26 149.408 70.89C148.958 67.425 148.243 63.975 147.283 60.635C146.903 59.3075 145.523 58.545 144.19 58.9225C142.865 59.3025 142.098 60.6875 142.478 62.015C143.368 65.1125 144.03 68.3175 144.45 71.5325C144.618 72.795 145.69 73.7125 146.928 73.7125Z" fill="#EDF2F4"/>
<path fill-rule="evenodd" clip-rule="evenodd" d="M33.0623 31.4275C32.0698 30.4675 30.4848 30.4975 29.5298 31.4975C27.1073 34.015 24.8648 36.73 22.8548 39.565C22.0598 40.6925 22.3248 42.2525 23.4498 43.0525C23.8898 43.3625 24.3923 43.5125 24.8923 43.5125C25.6748 43.5125 26.4473 43.1475 26.9348 42.4575C28.7973 39.825 30.8848 37.3025 33.1323 34.9625C34.0898 33.9675 34.0573 32.3825 33.0623 31.4275Z" fill="#EDF2F4"/>
<path fill-rule="evenodd" clip-rule="evenodd" d="M116.91 139.022C117.38 139.022 117.855 138.89 118.277 138.615C121.192 136.707 123.987 134.565 126.585 132.247C127.615 131.33 127.705 129.747 126.785 128.717C125.865 127.69 124.285 127.602 123.255 128.517C120.842 130.667 118.247 132.657 115.537 134.43C114.382 135.187 114.057 136.735 114.815 137.892C115.295 138.625 116.095 139.022 116.91 139.022Z" fill="#EDF2F4"/>
<path fill-rule="evenodd" clip-rule="evenodd" d="M43.7276 139.88C46.7126 141.695 49.8551 143.29 53.0651 144.628C53.3801 144.76 53.7051 144.82 54.0276 144.82C55.0076 144.82 55.9351 144.243 56.3351 143.283C56.8676 142.008 56.2651 140.543 54.9901 140.013C52.0101 138.77 49.0951 137.288 46.3201 135.605C45.1401 134.888 43.6001 135.26 42.8876 136.445C42.1701 137.628 42.5476 139.165 43.7276 139.88Z" fill="#EDF2F4"/>
<path fill-rule="evenodd" clip-rule="evenodd" d="M112.683 20.8748C111.97 22.0573 112.35 23.5948 113.533 24.3073C116.293 25.9723 118.963 27.8673 121.463 29.9398C121.93 30.3248 122.493 30.5123 123.055 30.5123C123.775 30.5123 124.488 30.2048 124.983 29.6073C125.863 28.5448 125.715 26.9673 124.65 26.0873C121.96 23.8573 119.088 21.8198 116.115 20.0248C114.935 19.3073 113.395 19.6923 112.683 20.8748Z" fill="#EDF2F4"/>
<path fill-rule="evenodd" clip-rule="evenodd" d="M101.075 18.3575C102.128 18.3575 103.105 17.69 103.45 16.6375C103.88 15.3275 103.168 13.9125 101.855 13.48C98.5451 12.39 95.1226 11.55 91.6851 10.97C90.3001 10.745 89.0326 11.66 88.8051 13.02C88.5776 14.3825 89.4951 15.6725 90.8551 15.9C94.0476 16.435 97.2226 17.2175 100.293 18.23C100.553 18.3175 100.815 18.3575 101.075 18.3575Z" fill="#EDF2F4"/>
<path fill-rule="evenodd" clip-rule="evenodd" d="M78.66 12.4674C78.585 11.0899 77.38 10.0424 76.025 10.1124C72.54 10.3049 69.0475 10.7649 65.645 11.4749C64.2925 11.7549 63.425 13.0799 63.71 14.4324C63.955 15.6124 64.995 16.4224 66.155 16.4224C66.3225 16.4224 66.495 16.4049 66.6675 16.3699C69.8275 15.7124 73.0725 15.2849 76.305 15.1049C77.6825 15.0274 78.7375 13.8474 78.66 12.4674Z" fill="#EDF2F4"/>
<path fill-rule="evenodd" clip-rule="evenodd" d="M50.7426 16.3899C47.5851 17.8424 44.5076 19.5524 41.5901 21.4674C40.4376 22.2274 40.1176 23.7774 40.8751 24.9324C41.3551 25.6624 42.1551 26.0574 42.9676 26.0574C43.4376 26.0574 43.9151 25.9249 44.3401 25.6474C47.0476 23.8649 49.9051 22.2774 52.8326 20.9299C54.0876 20.3549 54.6376 18.8699 54.0576 17.6149C53.4851 16.3624 52.0026 15.8074 50.7426 16.3899Z" fill="#EDF2F4"/>
<path fill-rule="evenodd" clip-rule="evenodd" d="M93.6877 148.61C93.8527 148.61 94.0252 148.592 94.1927 148.557C97.6027 147.855 100.993 146.887 104.263 145.68C105.558 145.202 106.22 143.762 105.743 142.467C105.265 141.172 103.823 140.515 102.53 140.987C99.4927 142.11 96.3502 143.01 93.1877 143.66C91.8352 143.937 90.9627 145.262 91.2427 146.612C91.4852 147.797 92.5252 148.61 93.6877 148.61Z" fill="#EDF2F4"/>
<path fill-rule="evenodd" clip-rule="evenodd" d="M132.03 36.9274C130.935 37.7674 130.727 39.3374 131.57 40.4324C133.547 43.0049 135.34 45.7399 136.9 48.5599C137.357 49.3824 138.207 49.8499 139.09 49.8499C139.5 49.8499 139.915 49.7499 140.297 49.5374C141.505 48.8674 141.942 47.3474 141.275 46.1399C139.595 43.1024 137.665 40.1574 135.535 37.3874C134.7 36.2974 133.132 36.0849 132.03 36.9274Z" fill="#EDF2F4"/>
<path fill-rule="evenodd" clip-rule="evenodd" d="M129.017 89.8474C135.19 89.0899 140 83.8724 140 77.4999C140 70.6574 134.47 65.0949 127.645 65.0149C127.325 63.9949 127.032 62.9624 126.652 61.9774C126.155 60.6899 124.703 60.0474 123.42 60.5474C122.13 61.0449 121.493 62.4924 121.99 63.7799C122.263 64.4874 122.465 65.2349 122.703 65.9649C118.185 67.8499 115 72.3074 115 77.4999C115 83.1499 118.792 87.8799 123.947 89.4224C123.785 90.1874 123.662 90.9599 123.46 91.7124C123.1 93.0449 123.893 94.4174 125.225 94.7774C125.443 94.8349 125.663 94.8624 125.878 94.8624C126.978 94.8624 127.99 94.1274 128.29 93.0124C128.568 91.9699 128.802 90.9099 129.017 89.8474ZM120 77.4999C120 73.3649 123.365 69.9999 127.5 69.9999C131.635 69.9999 135 73.3649 135 77.4999C135 81.6349 131.635 84.9999 127.5 84.9999C123.365 84.9999 120 81.6349 120 77.4999Z" fill="#EDF2F4"/>
<path fill-rule="evenodd" clip-rule="evenodd" d="M86.6402 30.4374C85.2627 30.2649 84.0128 31.2174 83.8328 32.5849C83.6503 33.9549 84.6127 35.2124 85.9802 35.3924C89.1577 35.8149 92.2827 36.5774 95.2802 37.6599C95.5602 37.7624 95.8477 37.8099 96.1302 37.8099C97.1528 37.8099 98.1127 37.1774 98.4802 36.1599C98.9502 34.8599 98.2778 33.4274 96.9778 32.9599C93.6503 31.7549 90.1702 30.9049 86.6402 30.4374Z" fill="#EDF2F4"/>
<path fill-rule="evenodd" clip-rule="evenodd" d="M60.5448 33.9274C59.2723 34.4649 58.6798 35.9324 59.2173 37.2049C59.6198 38.1574 60.5448 38.7299 61.5198 38.7299C61.8448 38.7299 62.1748 38.6674 62.4948 38.5324C65.4273 37.2949 68.5098 36.3649 71.6598 35.7699C73.0173 35.5124 73.9073 34.2074 73.6523 32.8499C73.3973 31.4924 72.0873 30.6074 70.7323 30.8574C67.2323 31.5149 63.8048 32.5524 60.5448 33.9274Z" fill="#EDF2F4"/>
<path fill-rule="evenodd" clip-rule="evenodd" d="M101.968 124.927C103.208 124.32 103.72 122.82 103.115 121.582C102.508 120.342 101.005 119.825 99.7702 120.435C96.9052 121.84 93.8777 122.937 90.7752 123.702C89.4327 124.032 88.6152 125.385 88.9452 126.725C89.2227 127.867 90.2477 128.63 91.3702 128.63C91.5677 128.63 91.7677 128.607 91.9677 128.557C95.4177 127.707 98.7827 126.487 101.968 124.927Z" fill="#EDF2F4"/>
<path fill-rule="evenodd" clip-rule="evenodd" d="M76.3026 129.857C77.5976 129.857 78.6926 128.862 78.7926 127.55C78.8976 126.172 77.8676 124.97 76.4926 124.865C73.2976 124.617 70.1301 124.03 67.0826 123.117C65.7576 122.725 64.3651 123.472 63.9701 124.795C63.5751 126.117 64.3251 127.51 65.6476 127.907C69.0351 128.922 72.5576 129.577 76.1076 129.85C76.1726 129.855 76.2376 129.857 76.3026 129.857Z" fill="#EDF2F4"/>
<path fill-rule="evenodd" clip-rule="evenodd" d="M34.4825 100.72C34.9025 101.642 35.81 102.185 36.76 102.185C37.1075 102.185 37.4575 102.115 37.7925 101.96C39.05 101.387 39.605 99.9049 39.0325 98.6499C37.7075 95.7399 36.6925 92.6849 36.02 89.5649C35.7275 88.2174 34.3925 87.3599 33.0475 87.6499C31.7 87.9424 30.8425 89.2724 31.1325 90.6224C31.8825 94.0924 33.01 97.4874 34.4825 100.72Z" fill="#EDF2F4"/>
<path fill-rule="evenodd" clip-rule="evenodd" d="M113.218 116.45C113.848 116.45 114.48 116.212 114.965 115.737C117.505 113.252 119.783 110.492 121.74 107.537C122.503 106.385 122.188 104.835 121.035 104.073C119.88 103.31 118.333 103.625 117.57 104.777C115.808 107.44 113.755 109.928 111.47 112.163C110.483 113.13 110.468 114.712 111.43 115.697C111.923 116.197 112.568 116.45 113.218 116.45Z" fill="#EDF2F4"/>
<path fill-rule="evenodd" clip-rule="evenodd" d="M43.4402 110.433C42.4277 111.37 42.3677 112.953 43.3052 113.965C45.7227 116.573 48.4177 118.925 51.3152 120.96C51.7527 121.268 52.2527 121.415 52.7477 121.415C53.5327 121.415 54.3102 121.045 54.7952 120.35C55.5877 119.22 55.3152 117.663 54.1852 116.868C51.5752 115.035 49.1477 112.915 46.9702 110.565C46.0327 109.55 44.4502 109.493 43.4402 110.433Z" fill="#EDF2F4"/>
<path fill-rule="evenodd" clip-rule="evenodd" d="M32.4999 77.4775C32.5874 77.4875 32.6749 77.4925 32.7624 77.4925C34.0274 77.4925 35.1099 76.5375 35.2449 75.2525C35.5799 72.0675 36.2549 68.9175 37.2549 65.8925C37.6899 64.5825 36.9774 63.1675 35.6649 62.735C34.3424 62.29 32.9399 63.015 32.5074 64.325C31.3974 67.69 30.6449 71.19 30.2724 74.73C30.1324 76.1025 31.1274 77.335 32.4999 77.4775Z" fill="#EDF2F4"/>
<path fill-rule="evenodd" clip-rule="evenodd" d="M114.67 51.3074C115.163 51.9024 115.875 52.2099 116.598 52.2099C117.16 52.2099 117.723 52.0224 118.193 51.6349C119.255 50.7524 119.4 49.1799 118.52 48.1149C116.258 45.3849 113.695 42.8874 110.908 40.6924C109.82 39.8349 108.253 40.0249 107.395 41.1074C106.543 42.1949 106.728 43.7649 107.813 44.6174C110.323 46.5999 112.633 48.8474 114.67 51.3074Z" fill="#EDF2F4"/>
<path fill-rule="evenodd" clip-rule="evenodd" d="M41.85 54.19C42.615 54.19 43.3675 53.84 43.86 53.1825C45.765 50.6225 47.95 48.2525 50.355 46.145C51.3925 45.235 51.4975 43.655 50.5875 42.6175C49.6775 41.5775 48.0925 41.4775 47.06 42.385C44.39 44.7275 41.9625 47.355 39.8475 50.2C39.025 51.3075 39.255 52.8725 40.3625 53.6975C40.81 54.0275 41.3325 54.19 41.85 54.19Z" fill="#EDF2F4"/>
</svg>
