<svg width="160" height="160" viewBox="0 0 160 160" fill="none" xmlns="http://www.w3.org/2000/svg">
<path fill-rule="evenodd" clip-rule="evenodd" d="M147.125 12.875C137.598 3.34748 111.503 20.0675 99.5727 28.61C93.4877 26.285 86.8927 24.9975 80.0002 24.9975C49.6727 24.9975 25.0002 49.67 25.0002 79.9975C25.0002 86.89 26.2877 93.485 28.6127 99.5725C20.0677 111.507 3.34771 137.597 12.8727 147.122C14.8252 149.075 17.5402 149.977 20.8552 149.977C30.3452 149.977 44.7727 142.577 60.3777 131.37C66.4752 133.707 73.0877 135 79.9977 135C110.325 135 134.998 110.327 134.998 80C134.998 73.1 133.708 66.5 131.38 60.41C134.703 55.7725 137.703 51.25 140.25 46.94C147.188 35.2 154.013 19.76 147.125 12.875ZM126.998 51.455C122.408 43.9275 116.063 37.5825 108.533 32.995C118.108 28.82 125.473 28.17 128.653 31.3525C131.818 34.5175 131.155 41.9025 126.998 51.455ZM80.0002 30C99.2527 30 115.968 40.9525 124.32 56.94C117.98 68.955 107.683 82.3925 95.0377 95.04C82.3927 107.685 68.9552 117.982 56.9427 124.322C40.9552 115.97 30.0002 99.2525 30.0002 80C30.0002 52.43 52.4302 30 80.0002 30ZM32.9952 108.532C37.5827 116.062 43.9277 122.41 51.4577 126.997C41.9052 131.155 34.5152 131.817 31.3502 128.647C28.1702 125.467 28.8202 118.105 32.9952 108.532ZM16.4077 143.59C13.1052 140.287 15.2877 129.397 26.3477 111.877C23.2977 121.085 23.7577 128.132 27.8127 132.182C30.1552 134.525 33.4052 135.69 37.4752 135.69C40.5952 135.69 44.2077 134.985 48.2502 133.62C32.1727 143.805 20.2852 147.462 16.4077 143.59ZM130 80C130 107.57 107.57 130 80.0002 130C74.8677 130 69.9127 129.217 65.2477 127.775C76.3977 119.34 87.9377 109.207 98.5727 98.575C109.65 87.4975 119.61 76.1325 127.79 65.3125C129.223 69.96 130 74.89 130 80ZM133.718 47.9825C136.773 38.7975 136.283 31.91 132.188 27.8175C128.133 23.76 121.085 23.295 111.875 26.3475C129.398 15.2875 140.29 13.1075 143.59 16.41C146.293 19.1125 145.703 27.8825 135.945 44.395C135.255 45.5675 134.473 46.7825 133.718 47.9825Z" fill="#EDF2F4"/>
</svg>
