<svg width="160" height="160" viewBox="0 0 160 160" fill="none" xmlns="http://www.w3.org/2000/svg">
<path fill-rule="evenodd" clip-rule="evenodd" d="M75.8101 120.565C74.9701 122.103 74.7751 123.723 75.2526 125.25C76.1801 128.213 79.4626 130 83.3926 130C84.5801 130 85.8276 129.838 87.0876 129.495C88.4201 129.133 89.2051 127.76 88.8426 126.425C88.4801 125.093 87.1076 124.31 85.7726 124.67C82.6476 125.518 80.2751 124.563 80.0251 123.758C79.9451 123.505 80.0751 123.188 80.1951 122.965C80.6501 122.133 81.9776 120.945 84.2251 120.333C87.3501 119.485 89.7201 120.44 89.9726 121.245C90.3851 122.563 91.7951 123.295 93.1051 122.885C94.4226 122.473 95.1576 121.07 94.7451 119.753C93.5376 115.895 88.3376 114.025 82.9101 115.508C79.7201 116.378 77.0651 118.268 75.8101 120.565Z" fill="#EDF2F4"/>
<path fill-rule="evenodd" clip-rule="evenodd" d="M53.1924 60.0375C57.5274 60.0375 62.5699 58.995 67.7474 56.8575C69.0249 56.33 69.6299 54.8675 69.1024 53.5925C68.5749 52.3175 67.1199 51.715 65.8374 52.2375C55.9424 56.3275 46.8074 55.5125 45.2524 52.0475C44.8724 51.2025 44.9249 50.1525 45.4099 48.93C46.9924 44.9475 52.3899 40.565 59.1624 37.7675C69.0574 33.6775 78.1924 34.495 79.7499 37.9575C80.3174 39.2175 81.7949 39.7775 83.0549 39.2125C84.3149 38.645 84.8774 37.1675 84.3099 35.9075C81.2974 29.205 69.6624 28.025 57.2524 33.1475C49.1699 36.4875 42.8524 41.83 40.7624 47.085C39.7724 49.5775 39.7474 52.0025 40.6899 54.1C42.4474 58.005 47.1324 60.0375 53.1924 60.0375Z" fill="#EDF2F4"/>
<path fill-rule="evenodd" clip-rule="evenodd" d="M39.5401 104.34C40.5351 104.782 41.5351 105.002 42.5076 105.002C43.3801 105.002 44.2326 104.825 45.0401 104.467C46.3026 103.907 46.8751 102.432 46.3151 101.17C45.7551 99.9049 44.2751 99.3374 43.0176 99.8949C42.8726 99.9599 42.4351 100.155 41.5651 99.7699C39.8426 99.0049 37.4676 96.3099 36.0451 92.0074C34.0201 85.8899 35.2426 80.8724 36.9751 80.1074C37.1226 80.0449 37.5601 79.8499 38.4276 80.2324C40.1476 80.9974 42.5226 83.6924 43.9451 87.9924C44.3801 89.3024 45.7901 90.0149 47.1051 89.5824C48.4151 89.1499 49.1276 87.7349 48.6951 86.4224C46.9701 81.2074 43.8926 77.1849 40.4576 75.6599C38.5676 74.8199 36.6651 74.7749 34.9576 75.5324C30.1676 77.6499 28.5976 85.4074 31.3026 93.5774C33.0276 98.7924 36.1051 102.815 39.5401 104.34Z" fill="#EDF2F4"/>
<path fill-rule="evenodd" clip-rule="evenodd" d="M112.142 84.5676C112.812 84.8551 113.5 85.0001 114.172 85.0001C114.93 85.0001 115.67 84.8176 116.355 84.4551C117.575 83.8076 118.132 82.2776 117.487 81.0576C116.842 79.8401 115.425 79.3526 114.202 80.0026C113.622 79.8976 111.79 78.0451 110.692 74.0701C109.315 69.0751 110.277 65.4201 110.797 64.9976C111.377 65.1026 113.21 66.9551 114.307 70.9301C114.672 72.2601 116.045 73.0426 117.382 72.6751C118.712 72.3076 119.495 70.9326 119.127 69.6001C117.86 65.0076 115.517 61.5826 112.857 60.4351C111.435 59.8201 109.94 59.8601 108.642 60.5476C104.71 62.6326 104.272 69.6001 105.875 75.4026C107.14 79.9951 109.485 83.4201 112.142 84.5676Z" fill="#EDF2F4"/>
<path fill-rule="evenodd" clip-rule="evenodd" d="M77.5 150C114.72 150 145 119.72 145 82.5C145 45.28 114.72 15 77.5 15C40.28 15 10 45.28 10 82.5C10 119.72 40.28 150 77.5 150ZM77.5 20C111.962 20 140 48.0375 140 82.5C140 116.962 111.962 145 77.5 145C43.0375 145 15 116.962 15 82.5C15 48.0375 43.0375 20 77.5 20Z" fill="#EDF2F4"/>
</svg>
