<svg width="160" height="160" viewBox="0 0 160 160" fill="none" xmlns="http://www.w3.org/2000/svg">
<path fill-rule="evenodd" clip-rule="evenodd" d="M77.5 150C114.72 150 145 119.722 145 82.505C145 45.2825 114.72 15 77.5 15C40.28 15 10 45.2825 10 82.505C10 119.722 40.28 150 77.5 150ZM77.5 20C111.962 20 140 48.04 140 82.505C140 116.965 111.962 145 77.5 145C43.0375 145 15 116.965 15 82.505C15 48.04 43.0375 20 77.5 20Z" fill="#EDF2F4"/>
<path fill-rule="evenodd" clip-rule="evenodd" d="M42.5 50H102.5C103.88 50 105 48.88 105 47.5C105 46.12 103.88 45 102.5 45H42.5C41.12 45 40 46.12 40 47.5C40 48.88 41.12 50 42.5 50Z" fill="#EDF2F4"/>
<path fill-rule="evenodd" clip-rule="evenodd" d="M80 67.5C80 68.88 81.12 70 82.5 70H122.5C123.88 70 125 68.88 125 67.5C125 66.12 123.88 65 122.5 65H82.5C81.12 65 80 66.12 80 67.5Z" fill="#EDF2F4"/>
<path fill-rule="evenodd" clip-rule="evenodd" d="M95.005 80.1125C83.975 80.1125 75 86.8351 75 95.0976C75 103.378 83.975 110.113 95.005 110.113C106.03 110.113 115 103.378 115 95.0976C115 86.8351 106.03 80.1125 95.005 80.1125ZM95.005 105.113C86.8725 105.113 80 100.528 80 95.0976C80 89.6851 86.8725 85.1125 95.005 85.1125C103.132 85.1125 110 89.6851 110 95.0976C110 100.525 103.132 105.113 95.005 105.113Z" fill="#EDF2F4"/>
<path fill-rule="evenodd" clip-rule="evenodd" d="M92.5 120H47.5C46.12 120 45 121.12 45 122.5C45 123.88 46.12 125 47.5 125H92.5C93.88 125 95 123.88 95 122.5C95 121.12 93.88 120 92.5 120Z" fill="#EDF2F4"/>
</svg>
